<mxfile host="app.diagrams.net" agent="Mozilla/5.0 (Windows NT 10.0; Win64; x64) AppleWebKit/537.36 (KHTML, like Gecko) Chrome/141.0.0.0 Safari/537.36" version="28.2.7">
  <diagram name="테스트 파일 구조" id="test-files-diagram">
    <mxGraphModel dx="1188" dy="648" grid="1" gridSize="10" guides="1" tooltips="1" connect="1" arrows="1" fold="1" page="1" pageScale="1" pageWidth="1169" pageHeight="1654" background="light-dark(#FFFFFF,#FFFFFF)" math="0" shadow="0">
      <root>
        <mxCell id="0" />
        <mxCell id="1" parent="0" />
        <mxCell id="title" value="게시판 API 테스트 파일 구조" style="text;html=1;strokeColor=#001DBC;fillColor=#0050ef;align=center;verticalAlign=middle;whiteSpace=wrap;rounded=0;fontSize=20;fontStyle=1;strokeWidth=2;fontColor=#ffffff;" parent="1" vertex="1">
          <mxGeometry x="384.5" y="30" width="400" height="40" as="geometry" />
        </mxCell>
        <mxCell id="test1" value="test-1-create.js" style="rounded=1;whiteSpace=wrap;html=1;fillColor=#008a00;strokeColor=#005700;fontStyle=1;fontSize=16;strokeWidth=2;fontColor=#ffffff;" parent="1" vertex="1">
          <mxGeometry x="80" y="120" width="280" height="60" as="geometry" />
        </mxCell>
        <mxCell id="test1-func1" value="createBoard()&#xa;기본 게시글 생성" style="rounded=0;whiteSpace=wrap;html=1;fillColor=#008a00;strokeColor=#005700;align=left;spacingLeft=10;strokeWidth=2;fontColor=#ffffff;" parent="1" vertex="1">
          <mxGeometry x="80" y="220" width="280" height="60" as="geometry" />
        </mxCell>
        <mxCell id="arrow1" style="edgeStyle=orthogonalEdgeStyle;rounded=0;orthogonalLoop=1;jettySize=auto;html=1;strokeColor=light-dark(#D5E8D4,#6600CC);strokeWidth=2;" parent="1" source="test1" target="test1-func1" edge="1">
          <mxGeometry relative="1" as="geometry" />
        </mxCell>
        <mxCell id="test1-func2" value="createLectureNotice(lecSerial)&#xa;강의 공지 생성" style="rounded=0;whiteSpace=wrap;html=1;fillColor=#008a00;strokeColor=#005700;align=left;spacingLeft=10;strokeWidth=2;fontColor=#ffffff;" parent="1" vertex="1">
          <mxGeometry x="80" y="300" width="280" height="60" as="geometry" />
        </mxCell>
        <mxCell id="arrow2" style="edgeStyle=orthogonalEdgeStyle;rounded=0;orthogonalLoop=1;jettySize=auto;html=1;strokeColor=light-dark(#D5E8D4,#6600CC);strokeWidth=2;" parent="1" source="test1-func1" target="test1-func2" edge="1">
          <mxGeometry relative="1" as="geometry" />
        </mxCell>
        <mxCell id="test1-func3" value="testLectureNoticeValidation()&#xa;유효성 검사 테스트" style="rounded=0;whiteSpace=wrap;html=1;fillColor=#008a00;strokeColor=#005700;align=left;spacingLeft=10;strokeWidth=2;fontColor=#ffffff;" parent="1" vertex="1">
          <mxGeometry x="80" y="380" width="280" height="60" as="geometry" />
        </mxCell>
        <mxCell id="arrow3" style="edgeStyle=orthogonalEdgeStyle;rounded=0;orthogonalLoop=1;jettySize=auto;html=1;strokeColor=light-dark(#D5E8D4,#6600CC);strokeWidth=2;" parent="1" source="test1-func2" target="test1-func3" edge="1">
          <mxGeometry relative="1" as="geometry" />
        </mxCell>
        <mxCell id="test1-func4" value="createAllTypes()&#xa;모든 타입 생성 테스트" style="rounded=0;whiteSpace=wrap;html=1;fillColor=#008a00;strokeColor=#005700;align=left;spacingLeft=10;strokeWidth=2;fontColor=#ffffff;" parent="1" vertex="1">
          <mxGeometry x="80" y="460" width="280" height="60" as="geometry" />
        </mxCell>
        <mxCell id="arrow4" style="edgeStyle=orthogonalEdgeStyle;rounded=0;orthogonalLoop=1;jettySize=auto;html=1;strokeColor=light-dark(#D5E8D4,#6600CC);strokeWidth=2;" parent="1" source="test1-func3" target="test1-func4" edge="1">
          <mxGeometry relative="1" as="geometry" />
        </mxCell>
        <mxCell id="test1-desc" value="📝 생성 기능 테스트&#xa;• BOARD_CODE 0-3 생성&#xa;• lecSerial 필수 검증&#xa;• 권한별 제한 확인&#xa;• 에러 케이스 테스트" style="rounded=0;whiteSpace=wrap;html=1;fillColor=#a20025;strokeColor=#6F0000;align=left;spacingLeft=10;verticalAlign=top;spacingTop=10;strokeWidth=2;fontColor=#ffffff;" parent="1" vertex="1">
          <mxGeometry x="80" y="550" width="280" height="120" as="geometry" />
        </mxCell>
        <mxCell id="arrow5" style="edgeStyle=orthogonalEdgeStyle;rounded=0;orthogonalLoop=1;jettySize=auto;html=1;dashed=1;strokeColor=light-dark(#D5E8D4,#6600CC);strokeWidth=2;" parent="1" source="test1-func4" target="test1-desc" edge="1">
          <mxGeometry relative="1" as="geometry" />
        </mxCell>
        <mxCell id="test2" value="test-2-read.js" style="rounded=1;whiteSpace=wrap;html=1;fillColor=#e51400;strokeColor=#B20000;fontStyle=1;fontSize=16;strokeWidth=2;fontColor=#ffffff;" parent="1" vertex="1">
          <mxGeometry x="444.5" y="120" width="280" height="60" as="geometry" />
        </mxCell>
        <mxCell id="test2-func1" value="getBoardDetail(boardSerial)&#xa;게시글 상세 조회" style="rounded=0;whiteSpace=wrap;html=1;fillColor=#e51400;strokeColor=#B20000;align=left;spacingLeft=10;strokeWidth=2;fontColor=#ffffff;" parent="1" vertex="1">
          <mxGeometry x="444.5" y="220" width="280" height="60" as="geometry" />
        </mxCell>
        <mxCell id="arrow6" style="edgeStyle=orthogonalEdgeStyle;rounded=0;orthogonalLoop=1;jettySize=auto;html=1;strokeColor=light-dark(#D5E8D4,#6600CC);strokeWidth=2;" parent="1" source="test2" target="test2-func1" edge="1">
          <mxGeometry relative="1" as="geometry" />
        </mxCell>
        <mxCell id="test2-func2" value="getBoardList(boardCode)&#xa;게시글 목록 조회" style="rounded=0;whiteSpace=wrap;html=1;fillColor=#e51400;strokeColor=#B20000;align=left;spacingLeft=10;strokeWidth=2;fontColor=#ffffff;" parent="1" vertex="1">
          <mxGeometry x="444.5" y="300" width="280" height="60" as="geometry" />
        </mxCell>
        <mxCell id="arrow7" style="edgeStyle=orthogonalEdgeStyle;rounded=0;orthogonalLoop=1;jettySize=auto;html=1;strokeColor=light-dark(#D5E8D4,#6600CC);strokeWidth=2;" parent="1" source="test2-func1" target="test2-func2" edge="1">
          <mxGeometry relative="1" as="geometry" />
        </mxCell>
        <mxCell id="test2-func3" value="getLectureNotices(lecSerial)&#xa;강의별 공지 조회" style="rounded=0;whiteSpace=wrap;html=1;fillColor=#e51400;strokeColor=#B20000;align=left;spacingLeft=10;strokeWidth=2;fontColor=#ffffff;" parent="1" vertex="1">
          <mxGeometry x="444.5" y="380" width="280" height="60" as="geometry" />
        </mxCell>
        <mxCell id="arrow8" style="edgeStyle=orthogonalEdgeStyle;rounded=0;orthogonalLoop=1;jettySize=auto;html=1;strokeColor=light-dark(#D5E8D4,#6600CC);strokeWidth=2;" parent="1" source="test2-func2" target="test2-func3" edge="1">
          <mxGeometry relative="1" as="geometry" />
        </mxCell>
        <mxCell id="test2-func4" value="quickViewAll()&#xa;전체 게시글 빠른 확인" style="rounded=0;whiteSpace=wrap;html=1;fillColor=#e51400;strokeColor=#B20000;align=left;spacingLeft=10;strokeWidth=2;fontColor=#ffffff;" parent="1" vertex="1">
          <mxGeometry x="444.5" y="460" width="280" height="60" as="geometry" />
        </mxCell>
        <mxCell id="arrow9" style="edgeStyle=orthogonalEdgeStyle;rounded=0;orthogonalLoop=1;jettySize=auto;html=1;strokeColor=light-dark(#D5E8D4,#6600CC);strokeWidth=2;" parent="1" source="test2-func3" target="test2-func4" edge="1">
          <mxGeometry relative="1" as="geometry" />
        </mxCell>
        <mxCell id="test2-desc" value="🔍 조회 기능 테스트&#xa;• 상세 정보 조회&#xa;• 타입별 필터링&#xa;• 강의별 필터링&#xa;• 목록 페이징&#xa;• 정렬 확인" style="rounded=0;whiteSpace=wrap;html=1;fillColor=#a20025;strokeColor=#6F0000;align=left;spacingLeft=10;verticalAlign=top;spacingTop=10;strokeWidth=2;fontColor=#ffffff;" parent="1" vertex="1">
          <mxGeometry x="444.5" y="550" width="280" height="120" as="geometry" />
        </mxCell>
        <mxCell id="arrow10" style="edgeStyle=orthogonalEdgeStyle;rounded=0;orthogonalLoop=1;jettySize=auto;html=1;dashed=1;strokeColor=light-dark(#D5E8D4,#6600CC);strokeWidth=2;" parent="1" source="test2-func4" target="test2-desc" edge="1">
          <mxGeometry relative="1" as="geometry" />
        </mxCell>
        <mxCell id="test3" value="test-3-update-delete.js" style="rounded=1;whiteSpace=wrap;html=1;fillColor=#f0a30a;strokeColor=#BD7000;fontStyle=1;fontSize=16;strokeWidth=2;fontColor=#000000;" parent="1" vertex="1">
          <mxGeometry x="809" y="120" width="280" height="60" as="geometry" />
        </mxCell>
        <mxCell id="test3-func1" value="updateBoard(boardSerial)&#xa;게시글 수정" style="rounded=0;whiteSpace=wrap;html=1;fillColor=#f0a30a;strokeColor=#BD7000;align=left;spacingLeft=10;strokeWidth=2;fontColor=#000000;" parent="1" vertex="1">
          <mxGeometry x="809" y="220" width="280" height="60" as="geometry" />
        </mxCell>
        <mxCell id="arrow11" style="edgeStyle=orthogonalEdgeStyle;rounded=0;orthogonalLoop=1;jettySize=auto;html=1;strokeColor=light-dark(#D5E8D4,#6600CC);strokeWidth=2;" parent="1" source="test3" target="test3-func1" edge="1">
          <mxGeometry relative="1" as="geometry" />
        </mxCell>
        <mxCell id="test3-func2" value="deleteBoard(boardSerial)&#xa;게시글 삭제" style="rounded=0;whiteSpace=wrap;html=1;fillColor=#f0a30a;strokeColor=#BD7000;align=left;spacingLeft=10;strokeWidth=2;fontColor=#000000;" parent="1" vertex="1">
          <mxGeometry x="809" y="300" width="280" height="60" as="geometry" />
        </mxCell>
        <mxCell id="arrow12" style="edgeStyle=orthogonalEdgeStyle;rounded=0;orthogonalLoop=1;jettySize=auto;html=1;strokeColor=light-dark(#D5E8D4,#6600CC);strokeWidth=2;" parent="1" source="test3-func1" target="test3-func2" edge="1">
          <mxGeometry relative="1" as="geometry" />
        </mxCell>
        <mxCell id="test3-func3" value="updateLecSerial(boardSerial)&#xa;강의 코드 수정" style="rounded=0;whiteSpace=wrap;html=1;fillColor=#f0a30a;strokeColor=#BD7000;align=left;spacingLeft=10;strokeWidth=2;fontColor=#000000;" parent="1" vertex="1">
          <mxGeometry x="809" y="380" width="280" height="60" as="geometry" />
        </mxCell>
        <mxCell id="arrow13" style="edgeStyle=orthogonalEdgeStyle;rounded=0;orthogonalLoop=1;jettySize=auto;html=1;strokeColor=light-dark(#D5E8D4,#6600CC);strokeWidth=2;" parent="1" source="test3-func2" target="test3-func3" edge="1">
          <mxGeometry relative="1" as="geometry" />
        </mxCell>
        <mxCell id="test3-desc" value="✏️ 수정/삭제 기능 테스트&#xa;• 제목/내용 수정&#xa;• lecSerial 변경&#xa;• 권한 확인&#xa;• 게시글 삭제&#xa;• 에러 케이스" style="rounded=0;whiteSpace=wrap;html=1;fillColor=#a20025;strokeColor=#6F0000;align=left;spacingLeft=10;verticalAlign=top;spacingTop=10;strokeWidth=2;fontColor=#ffffff;" parent="1" vertex="1">
          <mxGeometry x="809" y="470" width="280" height="120" as="geometry" />
        </mxCell>
        <mxCell id="arrow14" style="edgeStyle=orthogonalEdgeStyle;rounded=0;orthogonalLoop=1;jettySize=auto;html=1;dashed=1;strokeColor=light-dark(#D5E8D4,#6600CC);strokeWidth=2;" parent="1" source="test3-func3" target="test3-desc" edge="1">
          <mxGeometry relative="1" as="geometry" />
        </mxCell>
        <mxCell id="common" value="공통 설정 (전체 파일)" style="rounded=0;whiteSpace=wrap;html=1;fillColor=#1ba1e2;strokeColor=#006EAF;fontStyle=1;fontSize=14;strokeWidth=2;fontColor=#ffffff;" parent="1" vertex="1">
          <mxGeometry x="80" y="740" width="1009" height="60" as="geometry" />
        </mxCell>
        <mxCell id="arrow15" style="edgeStyle=orthogonalEdgeStyle;rounded=0;orthogonalLoop=1;jettySize=auto;html=1;dashed=1;strokeColor=light-dark(#D5E8D4,#6600CC);strokeWidth=2;" parent="1" source="test1-desc" target="common" edge="1">
          <mxGeometry relative="1" as="geometry" />
        </mxCell>
        <mxCell id="arrow16" style="edgeStyle=orthogonalEdgeStyle;rounded=0;orthogonalLoop=1;jettySize=auto;html=1;dashed=1;strokeColor=light-dark(#D5E8D4,#6600CC);strokeWidth=2;" parent="1" source="test2-desc" target="common" edge="1">
          <mxGeometry relative="1" as="geometry" />
        </mxCell>
        <mxCell id="arrow17" style="edgeStyle=orthogonalEdgeStyle;rounded=0;orthogonalLoop=1;jettySize=auto;html=1;dashed=1;strokeColor=light-dark(#D5E8D4,#6600CC);strokeWidth=2;" parent="1" source="test3-desc" target="common" edge="1">
          <mxGeometry relative="1" as="geometry">
            <Array as="points">
              <mxPoint x="949" y="690" />
              <mxPoint x="585" y="690" />
            </Array>
          </mxGeometry>
        </mxCell>
        <mxCell id="common-detail1" value="BASE_URL&#xa;http://localhost:8090" style="rounded=0;whiteSpace=wrap;html=1;fillColor=#6a00ff;strokeColor=#3700CC;align=left;spacingLeft=10;strokeWidth=2;fontColor=#ffffff;" parent="1" vertex="1">
          <mxGeometry x="80" y="840" width="240" height="60" as="geometry" />
        </mxCell>
        <mxCell id="arrow18" style="edgeStyle=orthogonalEdgeStyle;rounded=0;orthogonalLoop=1;jettySize=auto;html=1;strokeColor=light-dark(#D5E8D4,#6600CC);strokeWidth=2;" parent="1" source="common" target="common-detail1" edge="1">
          <mxGeometry relative="1" as="geometry" />
        </mxCell>
        <mxCell id="common-detail2" value="TEST_TOKEN&#xa;JWT 인증 토큰" style="rounded=0;whiteSpace=wrap;html=1;fillColor=#6a00ff;strokeColor=#3700CC;align=left;spacingLeft=10;strokeWidth=2;fontColor=#ffffff;" parent="1" vertex="1">
          <mxGeometry x="350" y="840" width="240" height="60" as="geometry" />
        </mxCell>
        <mxCell id="arrow19" style="edgeStyle=orthogonalEdgeStyle;rounded=0;orthogonalLoop=1;jettySize=auto;html=1;strokeColor=light-dark(#D5E8D4,#6600CC);strokeWidth=2;" parent="1" source="common" target="common-detail2" edge="1">
          <mxGeometry relative="1" as="geometry" />
        </mxCell>
        <mxCell id="common-detail3" value="헬퍼 함수&#xa;formatResponse()&#xa;logError()" style="rounded=0;whiteSpace=wrap;html=1;fillColor=#6a00ff;strokeColor=#3700CC;align=left;spacingLeft=10;strokeWidth=2;fontColor=#ffffff;" parent="1" vertex="1">
          <mxGeometry x="620" y="840" width="240" height="60" as="geometry" />
        </mxCell>
        <mxCell id="arrow20" style="edgeStyle=orthogonalEdgeStyle;rounded=0;orthogonalLoop=1;jettySize=auto;html=1;strokeColor=light-dark(#D5E8D4,#6600CC);strokeWidth=2;" parent="1" source="common" target="common-detail3" edge="1">
          <mxGeometry relative="1" as="geometry" />
        </mxCell>
        <mxCell id="common-detail4" value="fetch 설정&#xa;headers, method" style="rounded=0;whiteSpace=wrap;html=1;fillColor=#6a00ff;strokeColor=#3700CC;align=left;spacingLeft=10;strokeWidth=2;fontColor=#ffffff;" parent="1" vertex="1">
          <mxGeometry x="890" y="840" width="199" height="60" as="geometry" />
        </mxCell>
        <mxCell id="arrow21" style="edgeStyle=orthogonalEdgeStyle;rounded=0;orthogonalLoop=1;jettySize=auto;html=1;strokeColor=light-dark(#D5E8D4,#6600CC);strokeWidth=2;" parent="1" source="common" target="common-detail4" edge="1">
          <mxGeometry relative="1" as="geometry" />
        </mxCell>
        <mxCell id="flow-title" value="권장 테스트 실행 순서" style="text;html=1;strokeColor=#001DBC;fillColor=#0050ef;align=center;verticalAlign=middle;whiteSpace=wrap;rounded=0;fontSize=16;fontStyle=1;strokeWidth=2;fontColor=#ffffff;" parent="1" vertex="1">
          <mxGeometry x="384.5" y="960" width="400" height="40" as="geometry" />
        </mxCell>
        <mxCell id="flow1" value="1️⃣ 생성 테스트" style="rounded=1;whiteSpace=wrap;html=1;fillColor=#647687;strokeColor=#314354;fontStyle=1;strokeWidth=2;fontColor=#ffffff;" parent="1" vertex="1">
          <mxGeometry x="214.5" y="1020" width="200" height="60" as="geometry" />
        </mxCell>
        <mxCell id="flow2" value="2️⃣ 조회 테스트" style="rounded=1;whiteSpace=wrap;html=1;fillColor=#647687;strokeColor=#314354;fontStyle=1;strokeWidth=2;fontColor=#ffffff;" parent="1" vertex="1">
          <mxGeometry x="484.5" y="1020" width="200" height="60" as="geometry" />
        </mxCell>
        <mxCell id="arrow22" style="edgeStyle=orthogonalEdgeStyle;rounded=0;orthogonalLoop=1;jettySize=auto;html=1;strokeWidth=2;strokeColor=light-dark(#D5E8D4,#6600CC);" parent="1" source="flow1" target="flow2" edge="1">
          <mxGeometry relative="1" as="geometry" />
        </mxCell>
        <mxCell id="flow3" value="3️⃣ 수정/삭제 테스트" style="rounded=1;whiteSpace=wrap;html=1;fillColor=#647687;strokeColor=#314354;fontStyle=1;strokeWidth=2;fontColor=#ffffff;" parent="1" vertex="1">
          <mxGeometry x="754.5" y="1020" width="200" height="60" as="geometry" />
        </mxCell>
        <mxCell id="arrow23" style="edgeStyle=orthogonalEdgeStyle;rounded=0;orthogonalLoop=1;jettySize=auto;html=1;strokeWidth=2;strokeColor=light-dark(#D5E8D4,#6600CC);" parent="1" source="flow2" target="flow3" edge="1">
          <mxGeometry relative="1" as="geometry" />
        </mxCell>
        <mxCell id="exec-title" value="브라우저 콘솔 실행 방법" style="rounded=0;whiteSpace=wrap;html=1;fillColor=#0050ef;strokeColor=#001DBC;fontStyle=1;fontSize=14;strokeWidth=2;fontColor=#ffffff;" parent="1" vertex="1">
          <mxGeometry x="80" y="1090" width="1009" height="50" as="geometry" />
        </mxCell>
        <mxCell id="exec-step1" value="① F12로 개발자 도구 열기" style="rounded=0;whiteSpace=wrap;html=1;fillColor=#008a00;strokeColor=#005700;align=left;spacingLeft=15;strokeWidth=2;fontColor=#ffffff;" parent="1" vertex="1">
          <mxGeometry x="80" y="1200" width="320" height="50" as="geometry" />
        </mxCell>
        <mxCell id="arrow24" style="edgeStyle=orthogonalEdgeStyle;rounded=0;orthogonalLoop=1;jettySize=auto;html=1;strokeColor=light-dark(#D5E8D4,#6600CC);strokeWidth=2;" parent="1" source="exec-title" target="exec-step1" edge="1">
          <mxGeometry relative="1" as="geometry" />
        </mxCell>
        <mxCell id="exec-step2" value="② test-1-create.js 내용 복사" style="rounded=0;whiteSpace=wrap;html=1;fillColor=#008a00;strokeColor=#005700;align=left;spacingLeft=15;strokeWidth=2;fontColor=#ffffff;" parent="1" vertex="1">
          <mxGeometry x="424.5" y="1200" width="320" height="50" as="geometry" />
        </mxCell>
        <mxCell id="arrow25" style="edgeStyle=orthogonalEdgeStyle;rounded=0;orthogonalLoop=1;jettySize=auto;html=1;strokeColor=light-dark(#D5E8D4,#6600CC);strokeWidth=2;" parent="1" source="exec-title" target="exec-step2" edge="1">
          <mxGeometry relative="1" as="geometry" />
        </mxCell>
        <mxCell id="exec-step3" value="③ 콘솔에 붙여넣고 Enter" style="rounded=0;whiteSpace=wrap;html=1;fillColor=#008a00;strokeColor=#005700;align=left;spacingLeft=15;strokeWidth=2;fontColor=#ffffff;" parent="1" vertex="1">
          <mxGeometry x="769" y="1200" width="320" height="50" as="geometry" />
        </mxCell>
        <mxCell id="arrow26" style="edgeStyle=orthogonalEdgeStyle;rounded=0;orthogonalLoop=1;jettySize=auto;html=1;strokeColor=light-dark(#D5E8D4,#6600CC);strokeWidth=2;" parent="1" source="exec-title" target="exec-step3" edge="1">
          <mxGeometry relative="1" as="geometry" />
        </mxCell>
        <mxCell id="exec-step4" value="④ createBoard() 등 함수 호출" style="rounded=0;whiteSpace=wrap;html=1;fillColor=#e51400;strokeColor=#B20000;align=left;spacingLeft=15;fontStyle=1;strokeWidth=2;fontColor=#ffffff;" parent="1" vertex="1">
          <mxGeometry x="252.25" y="1310" width="320" height="50" as="geometry" />
        </mxCell>
        <mxCell id="arrow27" style="edgeStyle=orthogonalEdgeStyle;rounded=0;orthogonalLoop=1;jettySize=auto;html=1;strokeColor=light-dark(#D5E8D4,#6600CC);strokeWidth=2;" parent="1" source="exec-step1" target="exec-step4" edge="1">
          <mxGeometry relative="1" as="geometry">
            <Array as="points">
              <mxPoint x="240" y="1290" />
              <mxPoint x="412" y="1290" />
            </Array>
          </mxGeometry>
        </mxCell>
        <mxCell id="arrow28" style="edgeStyle=orthogonalEdgeStyle;rounded=0;orthogonalLoop=1;jettySize=auto;html=1;strokeColor=light-dark(#D5E8D4,#6600CC);strokeWidth=2;" parent="1" source="exec-step2" target="exec-step4" edge="1">
          <mxGeometry relative="1" as="geometry">
            <Array as="points">
              <mxPoint x="584.5" y="1290" />
              <mxPoint x="412" y="1290" />
            </Array>
          </mxGeometry>
        </mxCell>
        <mxCell id="exec-step5" value="⑤ 결과 확인 및 다음 테스트 진행" style="rounded=0;whiteSpace=wrap;html=1;fillColor=#e51400;strokeColor=#B20000;align=left;spacingLeft=15;fontStyle=1;strokeWidth=2;fontColor=#ffffff;" parent="1" vertex="1">
          <mxGeometry x="596.75" y="1310" width="320" height="50" as="geometry" />
        </mxCell>
        <mxCell id="arrow29" style="edgeStyle=orthogonalEdgeStyle;rounded=0;orthogonalLoop=1;jettySize=auto;html=1;strokeColor=light-dark(#D5E8D4,#6600CC);strokeWidth=2;" parent="1" source="exec-step3" target="exec-step5" edge="1">
          <mxGeometry relative="1" as="geometry">
            <Array as="points">
              <mxPoint x="929" y="1290" />
              <mxPoint x="757" y="1290" />
            </Array>
          </mxGeometry>
        </mxCell>
        <mxCell id="arrow30" style="edgeStyle=orthogonalEdgeStyle;rounded=0;orthogonalLoop=1;jettySize=auto;html=1;strokeColor=light-dark(#D5E8D4,#6600CC);strokeWidth=2;" parent="1" source="exec-step4" target="exec-step5" edge="1">
          <mxGeometry relative="1" as="geometry" />
        </mxCell>
        <mxCell id="notice" value="⚠️ 주의사항" style="rounded=0;whiteSpace=wrap;html=1;fillColor=#647687;strokeColor=#314354;fontStyle=1;fontSize=14;align=left;verticalAlign=top;spacingLeft=15;spacingTop=10;strokeWidth=2;fontColor=#ffffff;" parent="1" vertex="1">
          <mxGeometry x="80" y="1380" width="1009" height="170" as="geometry" />
        </mxCell>
        <mxCell id="notice1" value="• TEST_TOKEN은 실제 로그인 후 발급받은 JWT 토큰으로 교체 필요" style="text;html=1;strokeColor=none;fillColor=none;align=left;verticalAlign=middle;whiteSpace=wrap;rounded=0;fontSize=12;strokeWidth=2;" parent="1" vertex="1">
          <mxGeometry x="100" y="1420" width="500" height="20" as="geometry" />
        </mxCell>
        <mxCell id="notice2" value="• 교수 권한 테스트 시 해당 교수가 담당하는 강의의 lecSerial 사용" style="text;html=1;strokeColor=none;fillColor=none;align=left;verticalAlign=middle;whiteSpace=wrap;rounded=0;fontSize=12;strokeWidth=2;" parent="1" vertex="1">
          <mxGeometry x="100" y="1450" width="500" height="20" as="geometry" />
        </mxCell>
        <mxCell id="notice3" value="• 생성 테스트 전 반드시 토큰 유효성 확인" style="text;html=1;strokeColor=none;fillColor=none;align=left;verticalAlign=middle;whiteSpace=wrap;rounded=0;fontSize=12;strokeWidth=2;" parent="1" vertex="1">
          <mxGeometry x="100" y="1480" width="400" height="20" as="geometry" />
        </mxCell>
        <mxCell id="notice4" value="• boardSerial은 생성 후 반환된 값을 사용 (수정/삭제 테스트)" style="text;html=1;strokeColor=none;fillColor=none;align=left;verticalAlign=middle;whiteSpace=wrap;rounded=0;fontSize=12;strokeWidth=2;" parent="1" vertex="1">
          <mxGeometry x="100" y="1510" width="500" height="20" as="geometry" />
        </mxCell>
      </root>
    </mxGraphModel>
  </diagram>
</mxfile>
